<svg xmlns="http://www.w3.org/2000/svg" width="75.253" height="67.607" viewBox="0 0 75.253 67.607">
  <g id="gift" transform="translate(0 -26.013)">
    <g id="Group_6648" data-name="Group 6648" transform="translate(0 26.013)">
      <path id="Path_3590" data-name="Path 3590" d="M74.664,209.626l-1.47-2.546a1.47,1.47,0,0,0-2.008-.538L56.34,215.114H18.914L4.068,206.543a1.47,1.47,0,0,0-2.008.538L.59,209.626A4.414,4.414,0,0,0,2.2,215.649l14.847,8.572v18.818a4.414,4.414,0,0,0,4.409,4.409H53.794a4.414,4.414,0,0,0,4.409-4.409V224.221l14.847-8.572a4.417,4.417,0,0,0,1.613-6.023ZM36.977,244.509l18.286-18.286v7.6L44.578,244.509Zm18.286-22.444L32.82,244.509h-7.6l26.455-26.455h3.589ZM24,218.054l-4.012,4.012v-4.012ZM3.674,213.1a1.478,1.478,0,0,1-.538-2.008l.735-1.273,13.18,7.609v3.394ZM19.99,237.98l5.287-5.287a1.47,1.47,0,0,0-2.079-2.079l-3.208,3.208v-7.6l8.169-8.169h7.6l-3.208,3.208a1.47,1.47,0,1,0,2.079,2.079l5.286-5.286h7.6l-26.41,26.411a1.471,1.471,0,0,1-1.117-1.425Zm33.8,6.529H48.735l6.529-6.529v5.059A1.471,1.471,0,0,1,53.794,244.509Zm18.467-32.3a1.458,1.458,0,0,1-.681.893L58.2,220.827v-3.394l13.18-7.609.735,1.273A1.458,1.458,0,0,1,72.262,212.21Z" transform="translate(0 -179.841)" fill="#fff"/>
      <path id="Path_3591" data-name="Path 3591" d="M191.533,38.481l-.426,3.252a2.91,2.91,0,0,0,.248,1.817,2.939,2.939,0,0,0,3.928,1.356l3.008-1.464,3.1,1.475a2.94,2.94,0,0,0,4.173-3.057l-.464-3.317,2.273-2.4a2.939,2.939,0,0,0-1.535-5.006l-3.3-.584L200.9,27.543h0a2.934,2.934,0,0,0-5.166.023l-1.574,2.954-3.306.614a2.936,2.936,0,0,0-1.647,4.935Zm-.161-4.452,4.022-.748a1.47,1.47,0,0,0,1.029-.754l1.9-3.574,1.972,3.628a1.469,1.469,0,0,0,1.035.745l4,.705c-.022.02-.043.042-.064.063l-2.786,2.939a1.47,1.47,0,0,0-.389,1.215l.565,4.015-3.736-1.78a1.469,1.469,0,0,0-1.275.005L194,42.265q.011-.052.018-.106l.524-4a1.47,1.47,0,0,0-.4-1.211l-2.819-2.913Z" transform="translate(-160.699 -26.013)" fill="#f22f54"/>
      <path id="Path_3592" data-name="Path 3592" d="M246.55,175.125v6.813a1.47,1.47,0,1,0,2.939,0v-6.813a1.47,1.47,0,1,0-2.939,0Z" transform="translate(-210.314 -151.955)" fill="#fff"/>
      <path id="Path_3593" data-name="Path 3593" d="M124.355,149.14a1.47,1.47,0,0,0,.538,2.008c3.125,1.8,5.171,6.161,5.343,9.33a1.47,1.47,0,0,0,1.466,1.39l.081,0a1.47,1.47,0,0,0,1.388-1.547c-.217-3.994-2.625-9.3-6.808-11.716A1.47,1.47,0,0,0,124.355,149.14Z" transform="translate(-105.91 -130.416)" fill="#f22f54"/>
      <path id="Path_3594" data-name="Path 3594" d="M26.573,66.7l3.046,1.183L30.8,70.93a2.674,2.674,0,0,0,4.988,0l1.183-3.046L40.016,66.7a2.674,2.674,0,0,0,0-4.988l-3.046-1.183-1.183-3.044a2.674,2.674,0,0,0-4.988,0l-1.183,3.046-3.044,1.183a2.674,2.674,0,0,0,0,4.988Zm4.713-3.665a1.47,1.47,0,0,0,.838-.838L33.3,59.186,34.467,62.2a1.47,1.47,0,0,0,.838.838l3.015,1.171L35.3,65.381a1.47,1.47,0,0,0-.838.838L33.3,69.233l-1.171-3.015a1.47,1.47,0,0,0-.838-.838l-3.015-1.171Z" transform="translate(-21.209 -51.404)" fill="#fff"/>
      <path id="Path_3595" data-name="Path 3595" d="M327.908,161.865l.081,0a1.47,1.47,0,0,0,1.466-1.39c.172-3.169,2.218-7.526,5.343-9.33a1.47,1.47,0,1,0-1.47-2.546c-4.183,2.415-6.591,7.722-6.808,11.716A1.47,1.47,0,0,0,327.908,161.865Z" transform="translate(-278.528 -130.416)" fill="#f22f54"/>
      <path id="Path_3596" data-name="Path 3596" d="M374.135,66.7l3.046,1.183,1.182,3.043a2.675,2.675,0,0,0,4.988,0l1.183-3.046,3.043-1.182a2.674,2.674,0,0,0,0-4.988l-3.046-1.183-1.182-3.043a2.674,2.674,0,0,0-4.988,0l-1.183,3.046-3.043,1.182a2.675,2.675,0,0,0,0,4.988Zm4.714-3.665a1.47,1.47,0,0,0,.838-.838l1.171-3.015,1.171,3.015a1.47,1.47,0,0,0,.838.838l3.015,1.171-3.015,1.171a1.47,1.47,0,0,0-.838.838l-1.171,3.015-1.171-3.015a1.47,1.47,0,0,0-.838-.838l-3.015-1.171Z" transform="translate(-317.691 -51.404)" fill="#fff"/>
      <path id="Path_3597" data-name="Path 3597" d="M188.2,339.665a1.47,1.47,0,1,0,0-2.939h0a1.47,1.47,0,0,0,0,2.939Z" transform="translate(-159.287 -291.059)" fill="#f22f54"/>
    </g>
  </g>
</svg>
