<svg xmlns="http://www.w3.org/2000/svg" width="109.782" height="126.766" viewBox="0 0 109.782 126.766">
  <g id="Group_6650" data-name="Group 6650" transform="translate(-1102 -721)">
    <g id="Group_4" data-name="Group 4" transform="translate(1102 721)">
      <g id="Group_3" data-name="Group 3">
        <path id="Path_4" data-name="Path 4" d="M810.09,1281.133,755.2,1249.442l-54.891,31.691v28.449l12.7-7.37v-13.747l42.191-24.358,42.191,24.358v5.463l12.7-7.371Z" transform="translate(-700.308 -1249.442)" fill="#fff"/>
        <path id="Path_5" data-name="Path 5" d="M797.39,1475.4,755.2,1499.758,713.008,1475.4v-12.121l18.52-10.748,15.366,8.918,13.949-8.095-15.366-8.918-13.949-8.095-13.95,8.095-4.571,2.652-12.7,7.371v28.274l54.891,31.691,54.891-31.691v-28.45l-12.7,7.371Z" transform="translate(-700.308 -1387.658)" fill="#fff"/>
      </g>
      <path id="Path_6" data-name="Path 6" d="M945.949,1424.87l-30.808,17.88-13.948,8.094,13.948,8.1,13.95-8.1,16.858-9.784,12.7-7.37V1417.5Z" transform="translate(-848.868 -1373.723)" fill="#f22f54"/>
    </g>
  </g>
</svg>
