<svg xmlns="http://www.w3.org/2000/svg" width="201.123" height="68.956" viewBox="0 0 201.123 68.956">
  <g id="Group_79" data-name="Group 79" transform="translate(-1102 -721)">
    <path id="Path_264" data-name="Path 264" d="M61.922-22.5v5.644h9.884v3.966H61.922V-5.11H56.98V-26.465H73.118V-22.5Zm13.911.976h4.759V-5.11H75.833Zm2.38-2.288a3.019,3.019,0,0,1-2.136-.763,2.474,2.474,0,0,1-.824-1.891,2.474,2.474,0,0,1,.824-1.891,3.019,3.019,0,0,1,2.136-.763,3.094,3.094,0,0,1,2.135.732,2.348,2.348,0,0,1,.824,1.83,2.591,2.591,0,0,1-.824,1.968A2.984,2.984,0,0,1,78.213-23.811ZM94.6-26.465a11.863,11.863,0,0,1,4.927.946,7.32,7.32,0,0,1,3.218,2.685,7.4,7.4,0,0,1,1.129,4.118,7.415,7.415,0,0,1-1.129,4.1,7.189,7.189,0,0,1-3.218,2.685A12.032,12.032,0,0,1,94.6-11h-4.3V-5.11H85.352V-26.465Zm-.275,11.44a5.19,5.19,0,0,0,3.386-.961,3.347,3.347,0,0,0,1.159-2.73,3.383,3.383,0,0,0-1.159-2.761,5.19,5.19,0,0,0-3.386-.961H90.294v7.413Zm12.721-6.5H111.8V-5.11h-4.759Zm2.38-2.288a3.019,3.019,0,0,1-2.136-.763,2.474,2.474,0,0,1-.824-1.891,2.474,2.474,0,0,1,.824-1.891,3.018,3.018,0,0,1,2.136-.763,3.094,3.094,0,0,1,2.135.732,2.348,2.348,0,0,1,.824,1.83,2.591,2.591,0,0,1-.824,1.968A2.984,2.984,0,0,1,109.422-23.811ZM132.3-13.255q0,.092-.092,1.281H119.794a3.867,3.867,0,0,0,1.586,2.41,5.254,5.254,0,0,0,3.112.885,6.3,6.3,0,0,0,2.273-.381,5.505,5.505,0,0,0,1.846-1.205l2.532,2.746q-2.319,2.654-6.773,2.654a10.714,10.714,0,0,1-4.912-1.083,7.939,7.939,0,0,1-3.295-3A8.28,8.28,0,0,1,115-13.316a8.387,8.387,0,0,1,1.144-4.347,8.015,8.015,0,0,1,3.142-3.02,9.226,9.226,0,0,1,4.469-1.083,9.152,9.152,0,0,1,4.363,1.037,7.571,7.571,0,0,1,3.066,2.974A8.87,8.87,0,0,1,132.3-13.255Zm-8.511-4.912a4.1,4.1,0,0,0-2.715.915,3.9,3.9,0,0,0-1.342,2.5h8.084a3.935,3.935,0,0,0-1.342-2.486A4.012,4.012,0,0,0,123.791-18.167Z" transform="translate(1170.821 772.536)" fill="#fff"/>
    <path id="Path_265" data-name="Path 265" d="M3.071-25.9h9.7a13.634,13.634,0,0,1,6.147,1.327,9.936,9.936,0,0,1,4.149,3.737,10.512,10.512,0,0,1,1.48,5.613,10.512,10.512,0,0,1-1.48,5.613,9.936,9.936,0,0,1-4.149,3.737,13.634,13.634,0,0,1-6.147,1.327h-9.7ZM12.528-8.6a7.176,7.176,0,0,0,5.11-1.785,6.3,6.3,0,0,0,1.907-4.835,6.3,6.3,0,0,0-1.907-4.835,7.176,7.176,0,0,0-5.11-1.785H8.013V-8.6ZM44.012-12.69q0,.092-.092,1.281H31.5A3.867,3.867,0,0,0,33.09-9a5.254,5.254,0,0,0,3.112.885A6.3,6.3,0,0,0,38.475-8.5,5.5,5.5,0,0,0,40.32-9.7l2.532,2.746Q40.534-4.3,36.08-4.3a10.714,10.714,0,0,1-4.912-1.083,7.939,7.939,0,0,1-3.295-3,8.28,8.28,0,0,1-1.159-4.363A8.387,8.387,0,0,1,27.858-17.1,8.015,8.015,0,0,1,31-20.119,9.226,9.226,0,0,1,35.47-21.2a9.152,9.152,0,0,1,4.363,1.037A7.571,7.571,0,0,1,42.9-17.19,8.87,8.87,0,0,1,44.012-12.69ZM35.5-17.6a4.1,4.1,0,0,0-2.715.915,3.9,3.9,0,0,0-1.342,2.5h8.084a3.935,3.935,0,0,0-1.342-2.486A4.012,4.012,0,0,0,35.5-17.6Z" transform="translate(1180.281 771.971)" fill="#f22f54"/>
    <g id="Group_4" data-name="Group 4" transform="translate(1102 721)">
      <g id="Group_3" data-name="Group 3">
        <path id="Path_4" data-name="Path 4" d="M760.026,1266.681l-29.859-17.239-29.859,17.239v15.475l6.909-4.009v-7.478l22.95-13.25,22.95,13.25v2.971l6.909-4.01Z" transform="translate(-700.308 -1249.442)" fill="#fff"/>
        <path id="Path_5" data-name="Path 5" d="M753.117,1457.587l-22.95,13.25-22.95-13.25v-6.594l10.074-5.846L725.65,1450l7.588-4.4-8.359-4.851-7.588-4.4-7.588,4.4-2.486,1.443-6.909,4.009v15.38l29.859,17.239,29.859-17.239V1446.1l-6.909,4.01Z" transform="translate(-700.308 -1409.859)" fill="#fff"/>
      </g>
      <path id="Path_6" data-name="Path 6" d="M925.539,1421.509l-16.758,9.726-7.587,4.4,7.587,4.4,7.588-4.4,9.17-5.322,6.909-4.009V1417.5Z" transform="translate(-872.73 -1393.687)" fill="#f22f54"/>
    </g>
  </g>
</svg>
