<svg xmlns="http://www.w3.org/2000/svg" width="87.909" height="89.615" viewBox="0 0 87.909 89.615">
  <g id="_08-fast_support" data-name="08-fast support" transform="translate(-12.5 3.129)">
    <g id="linear_color" data-name="linear color" transform="translate(13 -2.478)">
      <path id="Path_3564" data-name="Path 3564" d="M231.843,125.786a23.693,23.693,0,0,0,0-10.1,23.4,23.4,0,0,0,4.205-6.415c2.253-5.284,1.467-10.054-2.274-13.795a11.044,11.044,0,0,0-8-3.475H225.7c-6.025.035-11.169,4.889-11.918,5.628a23.693,23.693,0,0,0-10.1,0,23.4,23.4,0,0,0-6.415-4.205c-5.283-2.253-10.054-1.467-13.795,2.274A11.041,11.041,0,0,0,180,103.769c.035,6.025,4.889,11.168,5.628,11.918a23.692,23.692,0,0,0,0,10.1,23.41,23.41,0,0,0-4.205,6.415c-2.253,5.284-1.467,10.054,2.274,13.795a11.044,11.044,0,0,0,8,3.475h.067c6.025-.035,11.169-4.889,11.918-5.628a23.693,23.693,0,0,0,10.1,0,23.4,23.4,0,0,0,6.415,4.205,14.455,14.455,0,0,0,5.665,1.257,11.25,11.25,0,0,0,8.13-3.532,11.041,11.041,0,0,0,3.474-8.071C237.436,131.679,232.582,126.535,231.843,125.786Zm-12.481,11.228-5.112-7.087a10.8,10.8,0,0,0,3.677-3.677l7.086,5.113a19.6,19.6,0,0,1-5.651,5.651Zm-26.9-5.651,7.087-5.113a10.8,10.8,0,0,0,3.677,3.677l-5.113,7.086A19.6,19.6,0,0,1,192.457,131.363Zm5.651-26.9,5.112,7.087a10.8,10.8,0,0,0-3.677,3.677l-7.086-5.113A19.6,19.6,0,0,1,198.108,104.458Zm-8.82,16.278a19.351,19.351,0,0,1,1.24-6.832l7.574,5.464a10.518,10.518,0,0,0,0,2.736l-7.574,5.464a19.351,19.351,0,0,1-1.24-6.832Zm12.93,0a6.517,6.517,0,1,1,6.517,6.517A6.517,6.517,0,0,1,202.218,120.736Zm22.8-10.627-7.087,5.112a10.8,10.8,0,0,0-3.677-3.677l5.112-7.086a19.6,19.6,0,0,1,5.651,5.651Zm-5.646,9.259,7.574-5.464a19.441,19.441,0,0,1,0,13.665l-7.574-5.465a10.517,10.517,0,0,0,0-2.736Zm6.373-23.163h.027a6.9,6.9,0,0,1,5.032,2.243c2.475,2.475,2.939,5.445,1.418,9.08a17.867,17.867,0,0,1-1.948,3.433,23.838,23.838,0,0,0-11.823-11.789C220.155,97.88,222.9,96.216,225.741,96.205Zm-10.173,6.324L210.1,110.1a10.517,10.517,0,0,0-2.736,0l-5.465-7.574a19.442,19.442,0,0,1,13.665,0Zm-31.364,1.2a6.9,6.9,0,0,1,2.243-5.059c2.475-2.475,5.445-2.939,9.08-1.418A17.882,17.882,0,0,1,198.96,99.2a23.839,23.839,0,0,0-11.79,11.823C185.879,109.316,184.215,106.568,184.2,103.73Zm7.524,41.537H191.7a6.9,6.9,0,0,1-5.032-2.243c-2.475-2.475-2.939-5.445-1.418-9.08a17.885,17.885,0,0,1,1.948-3.433,23.839,23.839,0,0,0,11.823,11.79C197.315,143.592,194.568,145.256,191.729,145.267Zm10.174-6.324,5.465-7.574a10.517,10.517,0,0,0,2.736,0l5.465,7.574a19.442,19.442,0,0,1-13.665,0Zm29.121,3.859c-2.475,2.475-5.445,2.939-9.08,1.418a17.883,17.883,0,0,1-3.433-1.948A23.838,23.838,0,0,0,230.3,130.455c1.289,1.71,2.952,4.459,2.969,7.272A6.9,6.9,0,0,1,231.023,142.8Z" transform="translate(-150.562 -76.58)" fill="#fff" stroke="#0c012b" stroke-width="1"/>
      <path id="Path_3565" data-name="Path 3565" d="M278.1,13.81H288.93L286.6,15.672a2.1,2.1,0,1,0,2.628,3.284l7.009-5.607a2.1,2.1,0,0,0,0-3.284l-7.009-5.607A2.1,2.1,0,1,0,286.6,7.742L288.93,9.6H278.1a2.1,2.1,0,1,0,0,4.205Z" transform="translate(-229.742 -3.997)" fill="#f22f54" stroke="#0c012b" stroke-width="1"/>
      <path id="Path_3566" data-name="Path 3566" d="M206.1,40.205h4.205a2.1,2.1,0,0,0,0-4.205H206.1a2.1,2.1,0,1,0,0,4.205Z" transform="translate(-170.358 -30.392)" fill="#fff" stroke="#0c012b" stroke-width="1"/>
      <path id="Path_3567" data-name="Path 3567" d="M80.238,218.065l-7.009-5.607a2.1,2.1,0,1,0-2.628,3.284l2.329,1.862H62.1a2.1,2.1,0,1,0,0,4.205H72.929L70.6,223.672a2.1,2.1,0,0,0,2.628,3.284l7.009-5.607a2.1,2.1,0,0,0,0-3.284Z" transform="translate(-51.589 -175.551)" fill="#f22f54" stroke="#0c012b" stroke-width="1"/>
      <path id="Path_3568" data-name="Path 3568" d="M296.238,426.065l-7.009-5.607a2.1,2.1,0,1,0-2.628,3.284l2.329,1.862H278.1a2.1,2.1,0,1,0,0,4.205H288.93l-2.329,1.862a2.1,2.1,0,1,0,2.628,3.284l7.009-5.607a2.1,2.1,0,0,0,0-3.284Z" transform="translate(-229.742 -347.106)" fill="#f22f54" stroke="#0c012b" stroke-width="1"/>
      <path id="Path_3569" data-name="Path 3569" d="M210.308,452H206.1a2.1,2.1,0,1,0,0,4.205h4.205a2.1,2.1,0,1,0,0-4.205Z" transform="translate(-170.358 -373.501)" fill="#f22f54" stroke="#0c012b" stroke-width="1"/>
      <path id="Path_3570" data-name="Path 3570" d="M14.1,53.81H24.929L22.6,55.672a2.1,2.1,0,1,0,2.628,3.284l7.009-5.607a2.1,2.1,0,0,0,0-3.284l-7.009-5.607A2.1,2.1,0,1,0,22.6,47.742L24.929,49.6H14.1a2.1,2.1,0,0,0,0,4.205Z" transform="translate(-12 -36.988)" fill="#fff" stroke="#0c012b" stroke-width="1"/>
      <path id="Path_3571" data-name="Path 3571" d="M32.238,386.065l-7.009-5.607a2.1,2.1,0,0,0-2.628,3.284l2.329,1.862H14.1a2.1,2.1,0,0,0,0,4.205H24.929L22.6,391.672a2.1,2.1,0,1,0,2.628,3.284l7.009-5.607a2.1,2.1,0,0,0,0-3.284Z" transform="translate(-12 -314.114)" fill="#fff" stroke="#0c012b" stroke-width="1"/>
    </g>
  </g>
</svg>
