<svg xmlns="http://www.w3.org/2000/svg" width="60.206" height="70.797" viewBox="0 0 60.206 70.797">
  <g id="print" transform="translate(-23.651 -1.778)">
    <path id="Path_3573" data-name="Path 3573" d="M14.558,9.3a3.763,3.763,0,1,1,3.763-3.763A3.767,3.767,0,0,1,14.558,9.3Zm0-5.017a1.254,1.254,0,1,0,1.254,1.254A1.256,1.256,0,0,0,14.558,4.287Z" transform="translate(24.885 0)" fill="#f22f54"/>
    <circle id="Ellipse_189" data-name="Ellipse 189" cx="3.136" cy="3.136" r="3.136" transform="translate(50.618 39.336)" fill="#f3f3f1"/>
    <g id="Group_6647" data-name="Group 6647" transform="translate(25.532 14.251)">
      <path id="Path_3575" data-name="Path 3575" d="M26.75,26.75h6.271v6.271H26.75Z" transform="translate(23.422 23.422)" fill="#f22f54"/>
      <path id="Path_3576" data-name="Path 3576" d="M6.75,26.75h6.271v6.271H6.75Z" transform="translate(-6.75 23.422)" fill="#f22f54"/>
      <path id="Path_3577" data-name="Path 3577" d="M26.75,6.75h6.271v6.271H26.75Z" transform="translate(23.422 -6.75)" fill="#f22f54"/>
      <path id="Path_3578" data-name="Path 3578" d="M6.75,6.75h6.271v6.9H6.75Z" transform="translate(-6.75 -6.75)" fill="#f22f54"/>
    </g>
    <path id="Path_3580" data-name="Path 3580" d="M21.017,26.034a5.017,5.017,0,1,1,5.017-5.017A5.022,5.022,0,0,1,21.017,26.034Zm0-6.271a1.254,1.254,0,1,0,1.254,1.254A1.256,1.256,0,0,0,21.017,19.763Z" transform="translate(32.737 21.455)" fill="#f22f54"/>
    <path id="Path_3581" data-name="Path 3581" d="M34.153,36.034H27.881A1.882,1.882,0,0,1,26,34.153V27.881A1.882,1.882,0,0,1,27.881,26h6.271a1.882,1.882,0,0,1,1.881,1.881v6.271A1.882,1.882,0,0,1,34.153,36.034Zm-4.39-3.763h2.509V29.763H29.763Z" transform="translate(47.823 36.541)" fill="#fff"/>
    <path id="Path_3582" data-name="Path 3582" d="M14.153,36.034H7.881A1.882,1.882,0,0,1,6,34.153V27.881A1.882,1.882,0,0,1,7.881,26h6.271a1.882,1.882,0,0,1,1.881,1.881v6.271A1.882,1.882,0,0,1,14.153,36.034Zm-4.39-3.763h2.509V29.763H9.763Z" transform="translate(17.651 36.541)" fill="#fff"/>
    <path id="Path_3583" data-name="Path 3583" d="M34.153,16.034H27.881A1.882,1.882,0,0,1,26,14.153V7.881A1.882,1.882,0,0,1,27.881,6h6.271a1.882,1.882,0,0,1,1.881,1.881v6.271A1.882,1.882,0,0,1,34.153,16.034Zm-4.39-3.763h2.509V9.763H29.763Z" transform="translate(47.823 6.369)" fill="#fff"/>
    <path id="Path_3584" data-name="Path 3584" d="M14.153,16.661H7.881A1.882,1.882,0,0,1,6,14.78v-6.9A1.882,1.882,0,0,1,7.881,6h6.271a1.882,1.882,0,0,1,1.881,1.881v6.9A1.882,1.882,0,0,1,14.153,16.661ZM9.763,12.9h2.509V9.763H9.763Z" transform="translate(17.651 6.369)" fill="#fff"/>
    <path id="Path_3585" data-name="Path 3585" d="M31.013,55.159H27.25v-8.78h3.763Zm0-12.543H27.25v-8.78h3.763Zm0-12.543H27.25v-8.78h3.763Zm0-12.543H27.25V8.75h3.763Z" transform="translate(49.708 10.518)" fill="#fff"/>
    <path id="Path_3586" data-name="Path 3586" d="M11.013,55.159H7.25v-8.78h3.763Zm0-12.543H7.25v-8.78h3.763Zm0-12.543H7.25v-8.78h3.763Zm0-12.543H7.25V8.75h3.763Z" transform="translate(19.537 10.518)" fill="#fff"/>
    <path id="Path_3587" data-name="Path 3587" d="M55.159,31.013h-8.78V27.25h8.78Zm-12.543,0h-8.78V27.25h8.78Zm-12.543,0h-8.78V27.25h8.78Zm-12.543,0H8.75V27.25h8.78Z" transform="translate(21.8 38.427)" fill="#fff"/>
    <path id="Path_3588" data-name="Path 3588" d="M55.159,11.013h-8.78V7.25h8.78Zm-12.543,0h-8.78V7.25h8.78Zm-12.543,0h-8.78V7.25h8.78Zm-12.543,0H8.75V7.25h8.78Z" transform="translate(21.8 8.255)" fill="#fff"/>
    <path id="Path_3589" data-name="Path 3589" d="M30.068,38.054c-6.61,0-13.213-3.811-19.617-11.321a1.884,1.884,0,0,1,0-2.443c12.811-15.024,26.423-15.024,39.237,0a1.884,1.884,0,0,1,0,2.443C43.28,34.243,36.678,38.054,30.068,38.054ZM14.386,25.511c10.6,11.655,20.764,11.655,31.362,0-10.6-11.655-20.764-11.655-31.362,0Z" transform="translate(23.686 16.961)" fill="#f22f54"/>
  </g>
</svg>
