<svg xmlns="http://www.w3.org/2000/svg" width="76.454" height="76.454" viewBox="0 0 76.454 76.454">
  <g id="referral" transform="translate(-1 -1)">
    <path id="Path_3598" data-name="Path 3598" d="M34.8,20a14.8,14.8,0,1,0,14.8,14.8A14.814,14.814,0,0,0,34.8,20ZM32.331,32.331V29.865a2.466,2.466,0,1,1,4.932,0v2.466a2.466,2.466,0,0,1-4.932,0ZM38.5,37.264a3.7,3.7,0,0,1,3.7,3.7V42.2H27.4V40.963a3.7,3.7,0,0,1,3.7-3.7Zm-11.066,7.4H42.164a12.235,12.235,0,0,1-14.733,0Zm17.232-2.5v-1.2a6.152,6.152,0,0,0-5.646-6.113,4.889,4.889,0,0,0,.714-2.519V29.865a4.932,4.932,0,1,0-9.865,0v2.466a4.889,4.889,0,0,0,.714,2.519,6.152,6.152,0,0,0-5.646,6.113v1.2a12.331,12.331,0,1,1,19.73,0Z" transform="translate(4.429 4.429)" fill="#f22f54"/>
    <path id="Path_3599" data-name="Path 3599" d="M66.356,50.325a11.1,11.1,0,1,0,0-22.2c-.17,0-.335.018-.5.026L62.13,21.64A11.091,11.091,0,1,0,45.465,10.865H32.988a11.1,11.1,0,1,0-17.56,10.183l-4.068,7.118a11.085,11.085,0,0,0,0,22.122l4.067,7.118A11.09,11.09,0,1,0,32.988,67.589H45.465A11.1,11.1,0,1,0,62.13,56.814L65.852,50.3C66.02,50.306,66.185,50.325,66.356,50.325Zm-6.029-4.932H72.385a8.6,8.6,0,0,1-12.059,0Zm14.661-6.166a8.577,8.577,0,0,1-.845,3.7H72.521v-7.4H70.055v7.4H67.589V37.994H65.122v4.932H62.656V40.46H60.19v2.466H58.568a8.627,8.627,0,1,1,16.419-3.7ZM62.519,18.264a8.6,8.6,0,0,1-12.057,0Zm-6.029-14.8A8.612,8.612,0,0,1,64.278,15.8H62.656V8.4H60.19v7.4H57.724V10.865H55.257V15.8H52.791V13.331H50.325V15.8H48.7A8.612,8.612,0,0,1,56.491,3.466Zm-34.527,0A8.612,8.612,0,0,1,29.75,15.8H28.129V8.4H25.662v7.4H23.2V10.865H20.73V15.8H18.264V13.331H15.8V15.8H14.176A8.612,8.612,0,0,1,21.963,3.466Zm6.029,14.8a8.6,8.6,0,0,1-12.057,0ZM12.1,30.595a8.612,8.612,0,0,1,7.787,12.331H18.264v-7.4H15.8v7.4H13.331V37.994H10.865v4.932H8.4V40.46H5.932v2.466H4.311A8.612,8.612,0,0,1,12.1,30.595Zm0,17.264a8.6,8.6,0,0,1-6.029-2.466H18.128A8.6,8.6,0,0,1,12.1,47.859Zm3.836,24.662H27.993a8.6,8.6,0,0,1-12.059,0ZM29.75,70.055H28.129v-7.4H25.662v7.4H23.2V65.122H20.73v4.932H18.264V67.589H15.8v2.466H14.176a8.632,8.632,0,1,1,15.574,0Zm20.712,2.466H62.52a8.6,8.6,0,0,1-12.059,0Zm14.661-6.166a8.577,8.577,0,0,1-.845,3.7H62.656v-7.4H60.19v7.4H57.724V65.122H55.257v4.932H52.791V67.589H50.325v2.466H48.7a8.627,8.627,0,1,1,16.419-3.7ZM59.875,55.789a11.086,11.086,0,0,0-14.41,9.334H32.988a11.085,11.085,0,0,0-15.425-8.951l-3.45-6.039a11.089,11.089,0,0,0,0-21.811l3.45-6.039a11.085,11.085,0,0,0,15.425-8.951H45.465a11.086,11.086,0,0,0,14.41,9.334l3.379,5.914a11.088,11.088,0,0,0,0,21.3Z" transform="translate(0 0)" fill="#fff"/>
  </g>
</svg>
