<svg id="Telegram" xmlns="http://www.w3.org/2000/svg" width="17.929" height="16.464" viewBox="0 0 17.929 16.464">
  <path id="Shape" d="M14.4,16.464a.464.464,0,0,1-.285-.1L9.96,13.185a.658.658,0,0,0-.4-.138.667.667,0,0,0-.434.163l-2.3,1.98a.465.465,0,0,1-.307.116.489.489,0,0,1-.466-.361l-1.6-5.424L.316,7.894a.524.524,0,0,1,0-.961L17.267.035A.465.465,0,0,1,17.444,0a.477.477,0,0,1,.367.179.528.528,0,0,1,.108.44L14.876,16.055A.5.5,0,0,1,14.4,16.464ZM13.939,3.386a.138.138,0,0,0-.075.024L5.79,8.655a.882.882,0,0,0-.355.964l.873,3.235a.206.206,0,0,0,.2.16.209.209,0,0,0,.208-.191l.227-1.774a1.486,1.486,0,0,1,.428-.871l6.663-6.533a.147.147,0,0,0,.035-.165A.145.145,0,0,0,13.939,3.386Z" transform="translate(0 0)" fill="#fff"/>
  <path id="Shape-2" data-name="Shape" d="M.386,5.269,8.461.024c.145-.094.294.113.17.235L1.967,6.791a1.485,1.485,0,0,0-.428.872L1.312,9.437A.207.207,0,0,1,.9,9.468L.031,6.233A.879.879,0,0,1,.386,5.269Z" transform="translate(5.403 3.386)" fill="#eaeaea"/>
</svg>
