<svg xmlns="http://www.w3.org/2000/svg" width="52.716" height="79.323" viewBox="0 0 52.716 79.323">
  <g id="touch" transform="translate(-85.867)">
    <g id="Group_6630" data-name="Group 6630" transform="translate(106.204)">
      <g id="Group_6629" data-name="Group 6629" transform="translate(0)">
        <path id="Path_3544" data-name="Path 3544" d="M218.682,0a1.549,1.549,0,0,0-1.549,1.549V11.1a1.549,1.549,0,1,0,3.1,0V1.549A1.549,1.549,0,0,0,218.682,0Z" transform="translate(-217.133)" fill="#f22f54"/>
      </g>
    </g>
    <g id="Group_6632" data-name="Group 6632" transform="translate(116.982 20.337)">
      <g id="Group_6631" data-name="Group 6631">
        <path id="Path_3545" data-name="Path 3545" d="M297.808,131.266h-9.554a1.549,1.549,0,1,0,0,3.1h9.554a1.549,1.549,0,1,0,0-3.1Z" transform="translate(-286.705 -131.266)" fill="#f22f54"/>
      </g>
    </g>
    <g id="Group_6634" data-name="Group 6634" transform="translate(85.867 20.333)">
      <g id="Group_6633" data-name="Group 6633">
        <path id="Path_3546" data-name="Path 3546" d="M96.97,131.239H87.416a1.549,1.549,0,0,0,0,3.1H96.97a1.549,1.549,0,0,0,0-3.1Z" transform="translate(-85.867 -131.239)" fill="#f22f54"/>
      </g>
    </g>
    <g id="Group_6636" data-name="Group 6636" transform="translate(92.933 7.063)">
      <g id="Group_6635" data-name="Group 6635" transform="translate(0)">
        <path id="Path_3547" data-name="Path 3547" d="M138.631,50.554l-4.511-4.511a1.549,1.549,0,0,0-2.191,2.191l4.511,4.511a1.549,1.549,0,0,0,2.191-2.191Z" transform="translate(-131.475 -45.589)" fill="#f22f54"/>
      </g>
    </g>
    <g id="Group_6638" data-name="Group 6638" transform="translate(114.962 7.066)">
      <g id="Group_6637" data-name="Group 6637" transform="translate(0)">
        <path id="Path_3548" data-name="Path 3548" d="M280.822,46.062a1.549,1.549,0,0,0-2.191,0l-4.511,4.511a1.549,1.549,0,0,0,2.191,2.191l4.511-4.511A1.549,1.549,0,0,0,280.822,46.062Z" transform="translate(-273.666 -45.608)" fill="#f22f54"/>
      </g>
    </g>
    <g id="Group_6640" data-name="Group 6640" transform="translate(102.021 16.151)">
      <g id="Group_6639" data-name="Group 6639">
        <path id="Path_3549" data-name="Path 3549" d="M220.964,123.378a5.7,5.7,0,0,0-2.871.774,5.727,5.727,0,0,0-9.678-2.283,5.717,5.717,0,0,0-6.817-1.175v-10.71a5.732,5.732,0,1,0-11.465,0v8.169a1.549,1.549,0,0,0,3.1,0v-8.169a2.634,2.634,0,1,1,5.268,0V135.92a1.549,1.549,0,1,0,3.1,0V125.783a2.634,2.634,0,1,1,5.268,0V135.92a1.549,1.549,0,1,0,3.1,0V125.783a2.634,2.634,0,1,1,5.268,0v10.137a1.549,1.549,0,0,0,3.1,0v-6.81a2.634,2.634,0,0,1,5.268,0v16.2a19.177,19.177,0,0,1-.309,3.434,1.549,1.549,0,0,0,1.246,1.8,1.567,1.567,0,0,0,.28.025,1.55,1.55,0,0,0,1.522-1.272,22.3,22.3,0,0,0,.359-3.99v-16.2A5.739,5.739,0,0,0,220.964,123.378Z" transform="translate(-190.133 -104.252)" fill="#fff"/>
      </g>
    </g>
    <g id="Group_6642" data-name="Group 6642" transform="translate(88.839 38.732)">
      <g id="Group_6641" data-name="Group 6641" transform="translate(0)">
        <path id="Path_3550" data-name="Path 3550" d="M147.837,282.461a1.549,1.549,0,0,0-2.19-.076,19.013,19.013,0,0,1-30.088-5.637l-7.136-14.777a2.841,2.841,0,0,1,4.985-2.715l5.047,8.282a1.549,1.549,0,0,0,2.872-.806V251.549a1.549,1.549,0,1,0-3.1,0v9.664l-2.175-3.569a5.94,5.94,0,0,0-10.421,5.674L112.77,278.1a22.111,22.111,0,0,0,34.991,6.555A1.549,1.549,0,0,0,147.837,282.461Z" transform="translate(-105.047 -250)" fill="#fff"/>
      </g>
    </g>
    <g id="Group_6644" data-name="Group 6644" transform="translate(132.992 65.483)">
      <g id="Group_6643" data-name="Group 6643" transform="translate(0)">
        <path id="Path_3551" data-name="Path 3551" d="M392.687,423.124a1.549,1.549,0,1,0,.454,1.1A1.561,1.561,0,0,0,392.687,423.124Z" transform="translate(-390.042 -422.67)" fill="#f22f54"/>
      </g>
    </g>
    <g id="Group_6646" data-name="Group 6646" transform="translate(102.02 33.774)">
      <g id="Group_6645" data-name="Group 6645" transform="translate(0)">
        <path id="Path_3552" data-name="Path 3552" d="M192.777,218.454a1.549,1.549,0,1,0,.454,1.1A1.561,1.561,0,0,0,192.777,218.454Z" transform="translate(-190.132 -218)" fill="#f22f54"/>
      </g>
    </g>
  </g>
</svg>
